<svg xmlns="http://www.w3.org/2000/svg" viewBox="0 0 800 240" width="800" height="240">
  <defs>
    <linearGradient id="goldM" x1="0%" y1="0%" x2="100%" y2="100%">
      <stop offset="0%" stop-color="#B8942E"/>
      <stop offset="100%" stop-color="#8B6918"/>
    </linearGradient>
    <linearGradient id="goldS" x1="0%" y1="100%" x2="100%" y2="0%">
      <stop offset="0%" stop-color="#E0C878"/>
      <stop offset="40%" stop-color="#EDE0A0"/>
      <stop offset="100%" stop-color="#F5EDC0"/>
    </linearGradient>
  </defs>

  <g transform="translate(0, 0)">
    <path d="M 50,205
             C 60,142 68,100 70,70
             C 74,95 92,130 104,120
             C 115,111 121,102 128,102
             C 135,102 141,111 152,120
             C 164,130 182,95 186,70
             C 188,100 196,142 206,205"
          fill="none" stroke="url(#goldM)" stroke-width="10"
          stroke-linecap="round" stroke-linejoin="round"/>

    <path d="M 190,62
           C 142,32 82,60 92,95
           C 104,130 165,128 148,158
           C 132,184 82,186 68,174"
          fill="none" stroke="url(#goldS)" stroke-width="3.5"
          stroke-linecap="round" stroke-linejoin="round"/>
  </g>

  <line x1="235" y1="58" x2="235" y2="182" stroke="#8B6918" stroke-width="0.8" opacity="0.2"/>

  <text x="255" y="118" text-anchor="start"
        font-family="'Helvetica Neue', Helvetica, Arial, sans-serif"
        font-size="40" letter-spacing="3">
    <tspan font-weight="300" fill="#D4AF37">Sense</tspan><tspan font-weight="600" fill="#E8D48B">Mind</tspan>
  </text>

  <text x="257" y="155" text-anchor="start"
        font-family="'PingFang SC', 'Noto Sans SC', 'Heiti SC', 'Microsoft YaHei', sans-serif"
        font-size="21" font-weight="400" fill="#C9A84C" letter-spacing="12">
    风味求索
  </text>

  <text x="257" y="176" text-anchor="start"
        font-family="'PingFang SC', 'Noto Sans SC', sans-serif"
        font-size="10" font-weight="300" fill="#9B7A2E" letter-spacing="4" opacity="0.5">
    从舌尖，到心灵 · 从科学，到艺术
  </text>
</svg>
