<svg xmlns="http://www.w3.org/2000/svg" viewBox="0 0 48 48" width="1cm" height="1cm">
  <defs>
    <linearGradient id="colorM" x1="0%" y1="0%" x2="100%" y2="100%">
      <stop offset="0%" stop-color="#6B3FA0"/>
      <stop offset="100%" stop-color="#4A2078"/>
    </linearGradient>
    <linearGradient id="colorS" x1="0%" y1="100%" x2="100%" y2="0%">
      <stop offset="0%" stop-color="#8B5FC8"/>
      <stop offset="100%" stop-color="#C8A8F8"/>
    </linearGradient>
  </defs>
  <rect width="48" height="48" rx="4" fill="#F7F3EC"/>
  <path d="M 11,32 C 13,24 14,18 14,14 C 15,19 18,24 20,22 C 22,20 23,18 24,18 C 25,18 26,20 28,22 C 30,24 33,19 34,14 C 34,18 35,24 37,32"
        fill="none" stroke="url(#colorM)" stroke-width="2.5" stroke-linecap="round" stroke-linejoin="round"/>
  <path d="M 37,12 C 29,8 22,12 23,18 C 24,23 31,22 29,26 C 27,30 19,30 17,28"
        fill="none" stroke="url(#colorS)" stroke-width="1.5" stroke-linecap="round" stroke-linejoin="round"/>
</svg>
