<svg xmlns="http://www.w3.org/2000/svg" viewBox="0 0 600 640" width="600" height="640">
  <rect width="600" height="640" fill="#FFFFFF"/>

  <!-- M — 单色金 -->
  <path d="M 160,390 C 185,300 195,240 198,195 C 205,235 240,295 260,278 C 278,263 288,248 300,248 C 312,248 322,263 340,278 C 360,295 395,235 402,195 C 405,240 415,300 440,390"
        fill="none" stroke="#B8942E" stroke-width="15" stroke-linecap="round" stroke-linejoin="round"/>
  <!-- S — 单色金 -->
  <path d="M 425,165 C 340,115 235,170 248,228 C 262,288 388,290 348,345 C 308,395 208,400 185,378"
        fill="none" stroke="#B8942E" stroke-width="5" stroke-linecap="round" stroke-linejoin="round"/>

  <text x="300" y="480" text-anchor="middle" font-family="'Helvetica Neue',Helvetica,Arial,sans-serif" font-size="48" letter-spacing="4">
    <tspan font-weight="300" fill="#9B7A2E">Sense</tspan><tspan font-weight="600" fill="#B8942E">Mind</tspan>
  </text>
  <text x="300" y="523" text-anchor="middle" font-family="'PingFang SC','Noto Sans SC','Heiti SC','Microsoft YaHei',sans-serif" font-size="25" font-weight="400" fill="#8B6918" letter-spacing="14">风味求索</text>
  <line x1="200" y1="538" x2="400" y2="538" stroke="#B8942E" stroke-width="0.8" opacity="0.4"/>
  <text x="300" y="562" text-anchor="middle" font-family="'PingFang SC','Noto Sans SC','Heiti SC',sans-serif" font-size="11" font-weight="400" fill="#8B6918" letter-spacing="4" opacity="0.8">风味求索（杭州）生物科技有限公司</text>
  <text x="300" y="584" text-anchor="middle" font-family="'Helvetica Neue',Helvetica,Arial,sans-serif" font-size="9" font-weight="300" fill="#9B7A2E" letter-spacing="5" opacity="0.5">FROM SCIENCE TO ART · RELIABLE FLAVOR SOLUTIONS</text>
  <text x="300" y="618" text-anchor="middle" font-family="'SF Mono','Menlo',monospace" font-size="8" fill="#B0A080" letter-spacing="2" opacity="0.5">单色鎏金 · 烫印/凹凸版</text>
</svg>
